<?xml version="1.0" encoding="utf-8"?>
<!-- Generator: Adobe Illustrator 22.0.1, SVG Export Plug-In . SVG Version: 6.00 Build 0)  -->
<svg version="1.1" id="Layer_1" xmlns="http://www.w3.org/2000/svg" xmlns:xlink="http://www.w3.org/1999/xlink" x="0px" y="0px"
	 viewBox="0 0 66 82.5" style="enable-background:new 0 0 66 82.5;" xml:space="preserve">
<style type="text/css">
	.st0{fill:#777;}
</style>
<g>
	<g>
		<path class="st0" d="M49.8,45.7v-2.1c2.3-1.4,3.9-3.7,4.4-6.4h0.3c2.6,0,4.8-2.1,4.8-4.8s-2.1-4.8-4.8-4.8h-0.1v-3.2
			c1.9-4.6-4.7-9.3-5-9.5s-0.8-0.2-1.1,0s-0.5,0.6-0.4,1s0,0.7-0.3,0.9c-1.1,1.4-5.4,2.2-11.1,2.2c-1.5,0-2.8,0.8-3.6,2.1
			c-0.7,1.2-0.7,2.5-0.2,3.7v2.8h-0.2c-2.6,0-4.8,2.1-4.8,4.8s2.1,4.8,4.8,4.8h0.3c0.5,2.7,2.1,5,4.4,6.4v2.1
			c-4.8,1.6-8.7,5-11.1,9.3c-1.4-1.5-3.2-2.6-5.2-3.3v-1c1.5-0.9,2.5-2.4,2.9-4.2c1.9,0,3.5-1.6,3.5-3.5s-1.5-3.4-3.3-3.5V38
			c1.5-2.7-1-5.7-3.4-7.4c-0.3-0.2-0.8-0.2-1.1,0c-0.3,0.2-0.5,0.6-0.4,1c0.3,1.5-6,1.8-7.6,1.8c-1.1,0-2.2,0.6-2.8,1.6
			s-0.5,2.2,0.1,3.2v1.1c-4.5,0.3-4.3,6.9,0.2,7c0.4,1.8,1.5,3.2,2.9,4.2v1c-5.4,1.9-9.1,7.1-9.1,12.9v0.1c0,0.6,0.4,1,1,1H29l0,0
			h33.2c0.6,0,1-0.4,1-1v-0.1C63.2,55.9,57.8,48.4,49.8,45.7z M54.6,29.6c1.5,0,2.8,1.2,2.8,2.8c0,1.5-1.2,2.8-2.8,2.8h-0.1v-5.5
			h0.1V29.6z M34.6,22.2c0.4-0.6,1.1-1,1.8-1c4.6,0,10.6-0.5,12.6-2.9c0.2-0.2,0.3-0.4,0.4-0.6c1.6,1.4,4.1,4.1,3,6.2
			c-0.5,0.9-1.4,1.5-2.5,1.5c-3.9,0-6.6,0-13.9,0C35,25.4,33.8,23.6,34.6,22.2z M32.7,35.1L32.7,35.1c-1.6,0-2.9-1.2-2.9-2.8
			c0-1.5,1.2-2.8,2.8-2.8h0.1V35.1z M34.7,35.5V27c0.4,0.2,0.9,0.3,1.4,0.3c7.4,0,8.3,0,8.4,0c0.2,0,0.8,0,5.5,0
			c0.9,0,1.7-0.2,2.4-0.6v1.9l0,0v6.9c0,4.1-3.5,7.3-7.4,7.3c-1.8-0.2-3.7,0.4-6-0.7C36.5,41,34.7,38.5,34.7,35.5z M47.8,44.4
			c-0.1,0.3,0.9,6.6-4.4,6.4c-5-0.2-4-6-4.1-6.4l0,0C42.9,45.6,47.7,44.5,47.8,44.4z M42.8,52.8c0.5,0.1,1.2,0.1,1.7,0l1.5,7.6
			l-2.7,2.2L41,60.2L42.8,52.8z M37.4,47.7c0.3,1.9,1.6,3.7,3.5,4.6L39,60.2c-0.1,0.3,0,0.7,0.2,0.9l2.3,2.4h-7.8v-7
			c0-0.6-0.4-1-1-1s-1,0.4-1,1v7h-6C26.1,56.4,30.7,50.1,37.4,47.7z M25.3,56.9c-0.9,2.1-1.4,4.3-1.5,6.6h-5.2l0.9-0.7
			c0.3-0.2,0.4-0.6,0.4-1l-1.1-5.4c1-0.5,1.8-1.5,2.1-2.7C22.6,54.4,24.1,55.5,25.3,56.9z M16.2,57c0,0,0.6,0,0.7,0l0.9,4.6
			l-1.4,1.1l-1.2-1.3L16.2,57z M25.4,42.8c0,0.8-0.6,1.4-1.3,1.5v-3C24.8,41.4,25.4,42.1,25.4,42.8z M10.5,36c0.2-0.4,0.6-0.6,1-0.6
			c2.6,0,7.6-0.2,9.1-2.3c1.1,1,2.4,2.6,1.8,3.8c-0.3,0.5-0.9,0.9-1.5,0.9c-9.5,0-9.8,0-10-0.1C10.5,37.3,10.2,36.6,10.5,36z
			 M8.8,44.4c-1.7-0.3-1.7-2.8,0-3V44.4z M10.8,39.7c0.9,0.1,10.2,0.2,11.3-0.1c0,0.5,0,5.7,0,5.4c0,6.3-11.3,6.4-11.3,0V39.7z
			 M19,51.4c-0.1,0.2,0.4,2.7-1.6,3.4c-0.5,0.2-1.3,0.2-2,0c-2-0.9-1.4-2.8-1.5-3.4C15.1,51.7,17.8,51.7,19,51.4z M12.1,53.6
			c0.4,1.8,1.6,2.4,2.2,2.8l-1.2,5.1c-0.1,0.3,0,0.7,0.2,0.9l1,1.1h-4.2v-4.4c0-0.6-0.4-1-1-1s-1,0.4-1,1v4.4H4.8
			C5.1,59.1,8,55.3,12.1,53.6z M55.5,63.5v-7c0-0.6-0.4-1-1-1s-1,0.4-1,1v7h-8.1l2.4-1.9c0.3-0.2,0.4-0.6,0.4-1l-1.6-8.4
			c1.7-0.9,2.9-2.5,3.3-4.4c6.6,2.5,11.1,8.7,11.5,15.7C61.4,63.5,55.5,63.5,55.5,63.5z"/>
	</g>
	<g>
		<path class="st0" d="M62.7,0.5H30.2c-0.6,0-1,0.4-1,1v10.7c0,0.6,0.4,1,1,1h2.9l5.1,5.4c0.6,0.7,1.7,0.2,1.7-0.7v-4.8h22.7
			c0.6,0,1-0.4,1-1V1.5C63.7,0.9,63.2,0.5,62.7,0.5z M61.7,11.2H38.9c-0.6,0-1,0.4-1,1v3.2l-3.7-3.9c-0.2-0.2-0.5-0.3-0.7-0.3h-2.4
			V2.5h30.5v8.7H61.7z"/>
	</g>
	<g>
		<path class="st0" d="M5.4,27.2L9,31.1c0.3,0.3,0.7,0.4,1.1,0.2c0.4-0.2,0.6-0.5,0.6-0.9v-3.2h16.5c0.6,0,1-0.4,1-1v-8.9
			c0-0.6-0.4-1-1-1h-24c-0.6,0-1,0.4-1,1v8.9c0,0.6,0.4,1,1,1H5.4z M4.3,18.3h22v6.9H9.8c-0.6,0-1,0.4-1,1v1.7l-2.2-2.4
			c-0.2-0.2-0.5-0.3-0.7-0.3H4.3V18.3z"/>
	</g>
</g>
</svg>
