<?xml version="1.0" encoding="utf-8"?>
<!-- Generator: Adobe Illustrator 22.0.1, SVG Export Plug-In . SVG Version: 6.00 Build 0)  -->
<svg version="1.1" id="Layer_1" xmlns="http://www.w3.org/2000/svg" xmlns:xlink="http://www.w3.org/1999/xlink" x="0px" y="0px"
	 viewBox="0 0 100 125" style="enable-background:new 0 0 100 125;" xml:space="preserve">
<style type="text/css">
	.st0{fill:#777;}
</style>
<title>16</title>
<g>
	<path class="st0" d="M88.6,29.7c0-5.5-4.5-10-10-10h-5.1v-5.4c0-1.1-0.9-2-2-2s-2,0.9-2,2v5.4h-39v-5.4c0-1.1-0.9-2-2-2s-2,0.9-2,2
		v5.4h-5.1c-5.5,0-10,4.5-10,10v48c0,5.5,4.5,10,10,10h57.2c5.5,0,10-4.5,10-10V29.7z M21.4,23.7h5.1v3.8c0,1.1,0.9,2,2,2s2-0.9,2-2
		v-3.8h39v3.8c0,1.1,0.9,2,2,2s2-0.9,2-2v-3.8h5.1c3.3,0,6,2.7,6,6v7.4H15.4v-7.4C15.4,26.4,18.1,23.7,21.4,23.7z M78.6,83.7H21.4
		c-3.3,0-6-2.7-6-6V41.1h69.2v36.6C84.6,81,81.9,83.7,78.6,83.7z"/>
	<path class="st0" d="M63.5,52.2L45.7,67.9l-8-8.1c-0.9-0.7-2.1-0.5-2.8,0.4c-0.5,0.7-0.5,1.7,0,2.4l9.2,9.5
		c0.4,0.4,0.9,0.6,1.5,0.6c0.5,0,0.9-0.2,1.3-0.5l19.3-17c0.8-0.8,0.9-2,0.2-2.9C65.6,51.5,64.3,51.5,63.5,52.2z"/>
</g>
</svg>
