<?xml version="1.0" encoding="utf-8"?>
<!-- Generator: Adobe Illustrator 22.0.1, SVG Export Plug-In . SVG Version: 6.00 Build 0)  -->
<svg version="1.1" id="Layer_1" xmlns="http://www.w3.org/2000/svg" xmlns:xlink="http://www.w3.org/1999/xlink" x="0px" y="0px"
	 viewBox="0 0 64 80" style="enable-background:new 0 0 64 80;" xml:space="preserve">
<style type="text/css">
	.st0{fill:#777;}
</style>
<title>Brain, intelligent, smart,idea</title>
<path class="st0" d="M7.3,28.9l2.2,4.5c-1.4,0.8-2,2.6-1.2,4c0.4,0.7,1,1.2,1.7,1.4l0.8,6.4c-1.5,0.6-2.3,2.3-1.7,3.9
	c0.5,1.4,1.9,2.1,3.4,1.9l3.5,3.5c0.2,1.6,1.8,2.7,3.4,2.5c0.5-0.1,0.9-0.3,1.3-0.6l5.3,2.3c0.4,1.6,2,2.6,3.6,2.2
	c1.2-0.3,2.1-1.2,2.3-2.4c1.9,3.3,6.2,4.5,9.6,2.6c2.2-1.2,3.5-3.6,3.5-6.1c0,0,0-0.1,0-0.1c0.2,0,0.5-0.1,0.7-0.2l0.1,0
	c0.2-0.1,0.4-0.1,0.6-0.2l0.2-0.1c0.2-0.1,0.3-0.1,0.5-0.2c0.1,0,0.1-0.1,0.2-0.1c0.2-0.1,0.3-0.2,0.5-0.2c0.1,0,0.2-0.1,0.3-0.2
	c0.1-0.1,0.3-0.2,0.4-0.2c0.1-0.1,0.2-0.2,0.3-0.2s0.2-0.2,0.3-0.2c0.2-0.1,0.3-0.3,0.5-0.5c0,0,0.1-0.1,0.1-0.1
	c0.2-0.2,0.3-0.3,0.5-0.5c0-0.1,0.1-0.1,0.1-0.2c0.1-0.1,0.2-0.3,0.3-0.4c0.1-0.1,0.1-0.2,0.2-0.2c0.1-0.1,0.2-0.3,0.3-0.4
	c0-0.1,0.1-0.2,0.1-0.3c0.1-0.1,0.1-0.3,0.2-0.4c0-0.1,0.1-0.2,0.1-0.3c0.1-0.1,0.1-0.3,0.2-0.5c0-0.1,0.1-0.2,0.1-0.3
	c0-0.2,0.1-0.3,0.1-0.5c0-0.1,0-0.2,0.1-0.3c0-0.2,0.1-0.4,0.1-0.5c0-0.1,0-0.2,0-0.3c0-0.3,0-0.5,0-0.8c0-0.9-0.1-1.7-0.4-2.5
	c0.4-0.4,0.7-0.8,1-1.2c0.9-1.1,1.3-2.4,1.3-3.8h0c0-0.2,0-0.3,0-0.5c0-0.8-0.1-1.7-0.4-2.5c2.4-1.4,3.7-4.1,3.4-6.8
	c0-0.1,0-0.2,0-0.2c0-0.2-0.1-0.4-0.1-0.6c0-0.1,0-0.2-0.1-0.3c-0.1-0.2-0.1-0.4-0.2-0.6c0-0.1,0-0.1-0.1-0.2
	c-0.1-0.2-0.2-0.5-0.4-0.7c0,0,0,0,0-0.1c0.6-1.3,0.9-2.6,0.9-4c0-0.4,0-0.7-0.1-1.1c0-0.1,0-0.3-0.1-0.4c0-0.2-0.1-0.5-0.1-0.7
	c0-0.1-0.1-0.3-0.1-0.4c-0.1-0.2-0.1-0.4-0.2-0.6c-0.1-0.2-0.1-0.3-0.2-0.5c-0.1-0.2-0.2-0.4-0.3-0.6c-0.1-0.3-0.3-0.5-0.5-0.8
	c-0.1-0.1-0.2-0.3-0.2-0.4c-0.1-0.2-0.2-0.3-0.3-0.5c-0.1-0.1-0.2-0.3-0.3-0.4s-0.2-0.3-0.3-0.4c-0.2-0.2-0.5-0.5-0.7-0.7l-0.1-0.1
	c-0.3-0.2-0.6-0.4-0.9-0.6c0,0,0,0-0.1,0c1.4-3.6-0.5-7.7-4.1-9C47.7,5.2,46.8,5,46,5c-0.7,0-1.4,0.1-2.1,0.3C41.9,2,37.6,1,34.3,3
	c-0.9,0.6-1.7,1.3-2.2,2.2l0-0.2l-6.3-0.9c-0.5-1.6-2.2-2.5-3.7-2c-1.1,0.3-1.9,1.3-2.1,2.4l-7.1,6.2C12.4,10.3,11.7,10,11,10
	c-1.7,0-3,1.3-3,3c0,1.2,0.7,2.2,1.7,2.7l-2.5,7.4c-1.6,0.4-2.6,2-2.1,3.6C5.4,27.8,6.2,28.7,7.3,28.9L7.3,28.9z M9.3,23.3l2.5-7.4
	c0.1,0,0.2-0.1,0.4-0.1l5.2,6.7c-0.6,0.4-1,0.9-1.2,1.6l-5.4,0.7C10.4,24.1,9.9,23.6,9.3,23.3z M22,7.8v2.4
	c-1.6,0.5-2.4,2.2-1.8,3.8c0.2,0.7,0.7,1.3,1.4,1.6l-2.8,5.5l-5.2-6.7c0.3-0.6,0.5-1.3,0.3-1.9l6.6-5.8C20.9,7.2,21.4,7.6,22,7.8z
	 M25.4,14.8l1.9,1.9C27.1,17.1,27,17.6,27,18c0,1.7,1.3,3,3,3c0.3,0,0.7-0.1,1-0.2v6.4c-0.9-0.3-1.9-0.2-2.7,0.3l-6.4-3.2
	c-0.2-0.8-0.7-1.6-1.5-2l3.2-6.5C24.3,15.8,25,15.4,25.4,14.8z M30,17c0.6,0,1,0.4,1,1s-0.4,1-1,1s-1-0.4-1-1S29.4,17,30,17z
	 M27.8,44c-0.4-1-1.2-1.7-2.3-1.9l-2.6-3.5c0,0,0,0,0,0l7.4-5.6c0.2,0,0.4-0.1,0.6-0.1V44H27.8z M26.3,56.6l-4.4-1.9
	C22,54.5,22,54.2,22,54c0-0.2,0-0.4-0.1-0.6l2.9-4.3l2.8,6.3C27.1,55.6,26.6,56.1,26.3,56.6z M16.6,52.2l-2.3-2.3
	c0.4-0.5,0.7-1.2,0.7-1.9c0-0.1,0-0.1,0-0.2l7.3-1.6c0.2,0.6,0.7,1,1.2,1.4l-2.7,4C19.4,50.6,17.6,50.9,16.6,52.2L16.6,52.2z
	 M12.9,45.2l-0.8-6.4c0.7-0.3,1.2-0.8,1.6-1.4l3.4,1.4c0.4,1.6,2,2.6,3.6,2.2c0.4-0.1,0.8-0.3,1.1-0.5l1.6,2.1c-0.6,0.4-1,1-1.2,1.7
	l-8,1.8C13.8,45.6,13.4,45.3,12.9,45.2z M19,24c0.6,0,1,0.4,1,1s-0.4,1-1,1s-1-0.4-1-1S18.4,24,19,24z M21.6,26.4l5.5,2.8
	c-0.3,1.1,0,2.3,0.9,3.1l-5.5,4.1c-0.4-0.6-0.9-1-1.6-1.2l-0.8-7.4C20.7,27.5,21.3,27,21.6,26.4z M20,37c0.6,0,1,0.4,1,1s-0.4,1-1,1
	s-1-0.4-1-1S19.4,37,20,37z M25,46c-0.6,0-1-0.4-1-1s0.4-1,1-1s1,0.4,1,1S25.6,46,25,46z M30,31c-0.6,0-1-0.4-1-1s0.4-1,1-1
	s1,0.4,1,1S30.6,31,30,31z M23,12c0.6,0,1,0.4,1,1s-0.4,1-1,1s-1-0.4-1-1S22.4,12,23,12z M10.9,26.8l5.3-0.7c0.3,0.8,1,1.5,1.9,1.7
	l0.8,7.4c-0.7,0.3-1.2,0.8-1.6,1.4l-3.4-1.4c-0.3-1.1-1.1-2-2.2-2.2l-2.2-4.5C10.1,28.2,10.7,27.6,10.9,26.8z M11,35
	c0.6,0,1,0.4,1,1s-0.4,1-1,1s-1-0.4-1-1S10.4,35,11,35z M11,48c0-0.6,0.4-1,1-1s1,0.4,1,1s-0.4,1-1,1S11,48.6,11,48z M18,54
	c0-0.6,0.4-1,1-1s1,0.4,1,1s-0.4,1-1,1S18,54.6,18,54z M29,59c-0.6,0-1-0.4-1-1s0.4-1,1-1s1,0.4,1,1S29.6,59,29,59z M29.7,55.1
	l-3.3-7.4c0.7-0.3,1.2-0.9,1.4-1.6H31v9c0,0.3,0,0.6,0.1,0.8C30.7,55.5,30.2,55.2,29.7,55.1z M33,9c0-2.8,2.2-5,5-5
	c2,0,3.8,1.2,4.6,3c0.2,0.5,0.8,0.7,1.3,0.5c0,0,0,0,0,0C44.6,7.2,45.3,7,46,7c2.7,0,5,2.2,5,4.9c0,0.6-0.1,1.1-0.3,1.6
	c-4.9-1.8-10.4,0.7-12.2,5.6c-0.4,1.1-0.6,2.2-0.6,3.3h2c0-4.1,3.3-7.5,7.5-7.5c1.2,0,2.3,0.3,3.4,0.8c0.6,0.3,1.1,0.7,1.6,1.1
	c0.1,0.1,0.1,0.1,0.2,0.2c0.2,0.2,0.3,0.3,0.5,0.5c0.1,0.1,0.2,0.2,0.2,0.3c0.1,0.2,0.3,0.4,0.4,0.6c0.1,0.1,0.1,0.2,0.2,0.3
	c0.1,0.2,0.2,0.3,0.3,0.5c0.1,0.1,0.1,0.2,0.2,0.3c0.1,0.3,0.2,0.5,0.3,0.8c0,0.1,0,0.2,0.1,0.3c0.1,0.2,0.1,0.4,0.1,0.7
	c0,0.1,0,0.2,0,0.3c0.1,1.1,0,2.2-0.3,3.2C53.4,23.6,51.7,23,50,23v2c1.7,0,3.2,0.8,4.1,2.2c0,0,0,0.1,0.1,0.1
	c0.1,0.2,0.3,0.4,0.4,0.7c0,0.1,0.1,0.2,0.1,0.3c0.1,0.2,0.1,0.4,0.2,0.6c0,0.1,0,0.2,0.1,0.3c0.5,2.3-0.8,4.6-3,5.5
	c-0.5,0.2-0.8,0.8-0.5,1.3c0,0,0,0,0,0.1c0.9,1.7,0.8,3.8-0.3,5.4c-1.3,1.7-3.8,2.1-5.6,0.7c-0.7-0.6-1.2-1.3-1.4-2.2
	c3.3-0.3,5.9-3.1,5.9-6.5h-2c0,2.5-2,4.5-4.5,4.5S39,36,39,33.5h-2c0,3,2.1,5.7,5.1,6.3c0.5,3.3,3.5,5.6,6.8,5.1
	c0.3,0,0.6-0.1,0.9-0.2c0.2,0.6,0.2,1.2,0.2,1.8c0,0.2,0,0.4,0,0.7c0,0.1,0,0.1,0,0.2c0,0.1,0,0.3-0.1,0.4c0,0.1,0,0.2-0.1,0.2
	c0,0.1-0.1,0.2-0.1,0.4c0,0.1-0.1,0.2-0.1,0.3c0,0.1-0.1,0.2-0.1,0.3c0,0.1-0.1,0.2-0.1,0.3c0,0.1-0.1,0.2-0.1,0.3
	c0,0.1-0.1,0.2-0.1,0.2S49,50,48.9,50.1s-0.1,0.2-0.2,0.2s-0.1,0.2-0.2,0.2s-0.1,0.2-0.2,0.2s-0.1,0.1-0.2,0.2
	c-0.1,0.1-0.2,0.2-0.3,0.2c-0.1,0.1-0.1,0.1-0.2,0.2c-0.1,0.1-0.2,0.2-0.3,0.2c-0.1,0-0.1,0.1-0.2,0.1C47.1,51.9,47,52,46.9,52
	l-0.1,0.1c-0.1,0.1-0.3,0.2-0.4,0.2l-0.1,0c-0.2,0.1-0.3,0.1-0.5,0.2l0,0c-0.6,0.2-1.2,0.3-1.8,0.4h0c-0.1,0-0.2,0-0.3,0
	c-3.6,0-6.5-2.9-6.5-6.5h-2c0,4.5,3.5,8.2,8,8.5v0c0,2.8-2.2,5-5,5s-5-2.2-5-5V9z M31,9v6.2c-0.7-0.3-1.6-0.2-2.3,0.1L26,12.5
	c-0.2-1.1-0.9-2-2-2.4V7.8c0.8-0.3,1.5-0.9,1.8-1.7l5.5,0.8C31.1,7.6,31,8.3,31,9z M23,4c0.6,0,1,0.4,1,1s-0.4,1-1,1s-1-0.4-1-1
	S22.4,4,23,4z M11,12c0.6,0,1,0.4,1,1s-0.4,1-1,1s-1-0.4-1-1S10.4,12,11,12z M8,25c0.6,0,1,0.4,1,1s-0.4,1-1,1s-1-0.4-1-1
	S7.4,25,8,25z"/>
</svg>
