<?xml version="1.0" encoding="utf-8"?>
<!-- Generator: Adobe Illustrator 22.0.1, SVG Export Plug-In . SVG Version: 6.00 Build 0)  -->
<svg version="1.1" id="Layer_1" xmlns="http://www.w3.org/2000/svg" xmlns:xlink="http://www.w3.org/1999/xlink" x="0px" y="0px"
	 viewBox="0 0 128 160" style="enable-background:new 0 0 128 160;" xml:space="preserve">
<style type="text/css">
	.st0{fill:#777;}
</style>
<title>Marketing and Advertising final ai - Copy</title>
<path class="st0" d="M89.1,63.6c-5.4,0-9.8,4.4-9.8,9.8c0,5.4,4.4,9.8,9.8,9.8c5.4,0,9.8-4.4,9.8-9.8c0,0,0,0,0,0
	C98.9,67.9,94.5,63.6,89.1,63.6z M89.1,79.1c-3.2,0-5.8-2.6-5.8-5.8s2.6-5.8,5.8-5.8s5.8,2.6,5.8,5.8v0
	C94.9,76.5,92.3,79.1,89.1,79.1z"/>
<path class="st0" d="M29.1,73.3c0,5.4,4.4,9.8,9.8,9.8s9.8-4.4,9.8-9.8s-4.4-9.8-9.8-9.8c0,0,0,0,0,0C33.5,63.6,29.1,67.9,29.1,73.3
	z M44.7,73.3c0,3.2-2.6,5.8-5.8,5.8s-5.8-2.6-5.8-5.8c0-3.2,2.6-5.8,5.8-5.8h0C42.1,67.6,44.7,70.2,44.7,73.3z"/>
<path class="st0" d="M23.4,106.6c0-8,7-14.5,15.5-14.5c5.2-0.1,10,2.4,13,6.6c1.2-0.6,2.4-1.2,3.7-1.7c-3.7-5.6-9.9-9-16.7-9
	c-10.8,0-19.5,8.3-19.5,18.5c0,2.1,1.2,5.1,6.8,7c4.1,1.3,8.4,1.9,12.7,1.8h0.9c0.2-1.4,0.6-2.7,1.1-4c-0.6,0-1.3,0-2,0
	C29.6,111.4,23.4,109,23.4,106.6z"/>
<path class="st0" d="M89.1,88.1c-6.7,0-13,3.4-16.7,9c1.3,0.4,2.5,1,3.7,1.7c3-4.2,7.8-6.7,13-6.6c8.5,0,15.5,6.5,15.5,14.5
	c0,2.3-6.2,4.8-15.5,4.8c-0.7,0-1.3,0-2,0c0.5,1.3,0.8,2.6,1.1,4h0.9c9,0,19.5-2.3,19.5-8.8C108.6,96.4,99.8,88.1,89.1,88.1z"/>
<path class="st0" d="M64,100.7c-10.8,0-19.5,8.3-19.5,18.5c0,2.1,1.2,5.1,6.8,7c4.1,1.3,8.4,1.9,12.7,1.8c9,0,19.5-2.3,19.5-8.8
	C83.5,109,74.8,100.7,64,100.7z M64,124c-9.3,0-15.5-2.5-15.5-4.8c0-8,7-14.5,15.5-14.5s15.5,6.5,15.5,14.5
	C79.5,121.5,73.3,124,64,124z"/>
<path class="st0" d="M54.2,85.9c0,5.4,4.4,9.8,9.8,9.8c5.4,0,9.8-4.4,9.8-9.8c0-5.4-4.4-9.8-9.8-9.8C58.6,76.1,54.2,80.5,54.2,85.9z
	 M69.8,85.9c0,3.2-2.6,5.8-5.8,5.8c-3.2,0-5.8-2.6-5.8-5.8c0-3.2,2.6-5.8,5.8-5.8C67.2,80.1,69.8,82.7,69.8,85.9L69.8,85.9z"/>
<path class="st0" d="M117.4,2.2c-0.8-0.8-2.1-0.7-2.8,0.1c-0.8,0.8-0.7,2.1,0.1,2.8c7,6.8,7.2,18,0.4,25c-0.8,0.8-0.7,2.1,0,2.8
	c0,0,0,0,0,0c0.8,0.8,2.1,0.7,2.8,0c0,0,0,0,0,0C126.3,24.2,126.1,10.5,117.4,2.2z"/>
<path class="st0" d="M106.8,10c-0.8,0.8-0.7,2.1,0,2.8c0,0,0,0,0,0c2.7,2.6,2.7,6.8,0.2,9.5c0,0,0,0,0,0c-0.8,0.8-0.7,2.1,0,2.8
	c0,0,0,0,0,0c0.8,0.7,2.1,0.7,2.8,0c4.1-4.2,3.9-11-0.3-15.1C108.8,9.2,107.5,9.2,106.8,10C106.8,10,106.8,10,106.8,10z"/>
<path class="st0" d="M27.1,34.4c0.6,0.3,1.4,0.3,2-0.1l16-10.4c0.3,0.2,0.7,0.3,1.1,0.4h0.1v10.3c0,3.5,2.8,6.3,6.3,6.3c0,0,0,0,0,0
	h8.6v10.4h-23c-1.1,0-2,0.9-2,2v4.3c0,1.1,0.9,2,2,2s2-0.9,2-2v-2.3h21v14.6c0,1.1,0.9,2,2,2c1.1,0,2-0.9,2-2V55.3h20.5V58
	c0,1.1,0.9,2,2,2s2-0.9,2-2v-4.7c0-1.1-0.9-2-2-2H65.3V40.9h9.3c0,0,1.8-0.1,2.1-0.2c2.8-0.7,4.8-3.2,4.8-6.1V24.3h0.1
	c0.4,0,0.8-0.1,1.1-0.4l16,10.4c0.9,0.6,2.2,0.3,2.8-0.6c0.2-0.3,0.3-0.7,0.3-1.1V2c0-1.1-0.9-2-2-2c-0.4,0-0.7,0.1-1,0.3L83.3,10.4
	c-0.4-0.5-1-0.8-1.6-0.8H67.9c-1.1,0-2,0.9-2,2v10.6c0,1.1,0.9,2,2,2h0.5v10.3c0,0.8,0.2,1.6,0.4,2.3h-9.7c0.3-0.7,0.4-1.5,0.4-2.3
	V24.3h0.5c1.1,0,2-0.9,2-2V11.7c0-1.1-0.9-2-2-2H46.3c-0.6,0-1.2,0.3-1.6,0.8L29.1,0.3C28.2-0.3,27,0,26.4,0.9C26.2,1.2,26,1.6,26,2
	v30.7C26,33.4,26.5,34.1,27.1,34.4z M83.7,14.9l14.2-9.3V29l-14.2-9.3V14.9z M77.6,34.6c0,1.3-1,2.3-2.3,2.3h-0.6
	c-1.3,0-2.3-1-2.3-2.3V24.3h5.2L77.6,34.6z M69.9,13.7h9.8v6.3h-9.3c-0.2,0-0.3,0-0.5,0.1V13.7z M55.6,34.6c0,0.7-0.3,1.3-0.8,1.7
	c-0.6,0.4-1.3,0.6-2,0.6c-1.3,0-2.4-1-2.4-2.2c0,0,0,0,0-0.1V24.3h5.2V34.6z M48.3,13.7h9.8V20c-0.2,0-0.3-0.1-0.5-0.1h-9.3
	L48.3,13.7z M30.1,5.7l14.2,9.3v4.8L30,29L30.1,5.7z"/>
<path class="st0" d="M13.4,2.3c-0.8-0.8-2-0.8-2.8,0c0,0,0,0,0,0C2,10.6,1.7,24.2,10,32.9c0.8,0.8,2,0.8,2.8,0.1c0,0,0,0,0,0
	c0.8-0.8,0.8-2,0.1-2.8c0,0,0,0,0,0c-6.8-7-6.6-18.2,0.4-25C14.1,4.3,14.1,3.1,13.4,2.3C13.4,2.3,13.4,2.3,13.4,2.3z"/>
<path class="st0" d="M20.9,22.4c-2.4-2.7-2.3-6.9,0.4-9.5c1.9-1.7-0.8-4.7-2.7-2.9C14.3,14,14,20.7,18,25.1
	C19.7,27,22.7,24.3,20.9,22.4z"/>
</svg>
