<?xml version="1.0" encoding="utf-8"?>
<!-- Generator: Adobe Illustrator 22.0.1, SVG Export Plug-In . SVG Version: 6.00 Build 0)  -->
<svg version="1.1" id="Layer_1" xmlns="http://www.w3.org/2000/svg" xmlns:xlink="http://www.w3.org/1999/xlink" x="0px" y="0px"
	 viewBox="0 0 64 80" style="enable-background:new 0 0 64 80;" xml:space="preserve">
<style type="text/css">
	.st0{fill:none;stroke:#777;stroke-width:1.5;stroke-miterlimit:10;}
</style>
<title>Financial Report</title>
<title>Glyph talent skill</title>
<path class="st0" d="M20.3,24.5l-5.7,3c-0.6,0.3-1.4,0.1-1.7-0.5c-0.1-0.2-0.2-0.5-0.1-0.8l1.1-6.4c0.1-0.4-0.1-0.8-0.4-1.1
	l-4.7-4.5c-0.5-0.5-0.5-1.3,0-1.8C9,12.2,9.3,12,9.5,12l6.4-0.9c0.4-0.1,0.8-0.3,1-0.7l2.9-5.8c0.3-0.6,1.1-0.9,1.7-0.6
	c0.3,0.1,0.5,0.3,0.6,0.6l2.9,5.8c0.2,0.4,0.5,0.6,1,0.7l6.4,0.9c0.7,0.1,1.2,0.7,1.1,1.4c0,0.3-0.2,0.5-0.4,0.7l-4.7,4.5
	c-0.3,0.3-0.4,0.7-0.4,1.1l1.1,6.4c0.1,0.7-0.3,1.3-1,1.5c-0.3,0-0.6,0-0.8-0.1l-5.7-3C21.1,24.3,20.7,24.3,20.3,24.5z"/>
<path class="st0" d="M40.6,29.4l-3.8,2c-0.4,0.2-0.9,0.1-1.1-0.4c-0.1-0.2-0.1-0.3-0.1-0.5l0.7-4.2c0-0.3,0-0.6-0.2-0.7l-3.1-3
	c-0.3-0.3-0.3-0.9,0-1.2c0.1-0.1,0.3-0.2,0.5-0.2l4.2-0.6c0.3,0,0.5-0.2,0.6-0.5l1.9-3.9c0.2-0.4,0.7-0.6,1.1-0.4
	c0.2,0.1,0.3,0.2,0.4,0.4l1.9,3.9c0.1,0.2,0.4,0.4,0.6,0.5l4.3,0.6c0.5,0.1,0.8,0.5,0.7,1c0,0.2-0.1,0.4-0.2,0.5l-3.1,3
	c-0.2,0.2-0.3,0.5-0.2,0.7l0.7,4.2c0.1,0.5-0.2,0.9-0.7,1c-0.2,0-0.4,0-0.5-0.1l-3.8-2C41.2,29.3,40.9,29.3,40.6,29.4z"/>
<path class="st0" d="M21,47.1c0.3,0.2,0.6,0.4,0.9,0.6c0.4,0.2,0.8,0.4,1.2,0.5c0.2,0.1,0.3,0,0.4-0.2c0-0.1,0-0.1,0-0.2
	c-0.2-0.6-0.4-1.2-0.5-1.8c-0.2-0.9-0.2-1.9-0.1-2.8c0.2-1.3,0.3-4-1.8-4.7c-0.7-0.3-1.5,0.1-1.8,0.9c0,0.1-0.1,0.2-0.1,0.3
	c-0.2,1.4-0.3,2.8-0.3,4.2c0,0.6,0.2,1.3,0.5,1.8C20,46.2,20.4,46.7,21,47.1z"/>
<path class="st0" d="M29.1,48.3c0.3-0.1,0.4-0.3,0.4-0.6c0,0,0-0.1,0-0.1c-0.3-0.6-0.4-1.1-0.4-1.4c0-1.4,0-4.3-2-4.7
	c-0.7-0.2-1.5,0.3-1.6,1.1c0,0.1,0,0.1,0,0.2c-0.2,1.7-0.2,3.5,0,5.2c0.1,0.4,0.4,0.6,0.7,0.6h0.1C27.1,48.6,28.1,48.5,29.1,48.3z"
	/>
<path class="st0" d="M12.2,42.5c0.4,1.5,1.3,4.6,1.7,7.4c0.1,0.7,0.5,1.2,1.1,1.5c1.2,0.6,3.2,1.7,4.8,3.5c0.3,0.3,0.6,0.5,1.1,0.6
	c1.6,0.4,5.7,1.4,8.7,1.8c2.6,0.4,5.1,1,7.6,1.8c1.2,0.4,2.4,0.6,3.6,0.8c2.1,0.3,4.2,0.4,6.4,0.5c0.5,0,1-0.4,1-0.9c0,0,0,0,0,0
	v-8.7c0-0.5-0.3-0.9-0.8-1c-1-0.2-2.8-0.9-3.8-2.4c-0.1-0.1-0.1-0.2-0.2-0.4c-0.5-1.1-1.1-2-1.9-2.8c-0.7-0.7-1.2-1.6-1.3-2.6
	c-0.2-1.5-0.4-3-0.5-4.6c0-0.5-0.5-0.9-1-0.9c-0.1,0-0.2,0-0.2,0c-1.1,0.3-2.6,1.3-3.2,3.9c-0.2,0.8-0.2,1.6-0.1,2.4
	c0.1,0.4,0.1,0.8,0.2,1.2c0.3,1.6-0.1,3.2-1.3,4.3c-1.5,1.5-4.3,2.9-9.6,2.5c-1.2-0.1-2.3-0.4-3.3-1c-0.3-0.2-0.7-0.4-1-0.6
	c-1.4-0.9-2.4-2.3-2.8-3.9c-0.5-1.7-1.6-4.1-4.2-3.5C12.4,41.4,12.1,41.9,12.2,42.5C12.2,42.5,12.2,42.5,12.2,42.5z"/>
</svg>
